<?xml version="1.0" encoding="UTF-8"?>
<svg xmlns="http://www.w3.org/2000/svg" xmlns:xlink="http://www.w3.org/1999/xlink" width="32px" height="px" viewBox="0 0 32 32" version="1.1">
<g id="surface1">
<path style=" stroke:none;fill-rule:nonzero;fill:rgb(100%,100%,100%);fill-opacity:1;" d="M 31.242188 18.203125 C 30.917969 18.121094 30.589844 18.203125 30.304688 18.40625 C 29.238281 19.308594 28.011719 20.042969 26.664062 20.535156 C 25.394531 21.023438 24.003906 21.269531 22.53125 21.269531 C 19.21875 21.269531 16.195312 19.921875 14.027344 17.753906 C 11.859375 15.585938 10.511719 12.558594 10.511719 9.246094 C 10.511719 7.855469 10.753906 6.507812 11.164062 5.28125 C 11.613281 3.972656 12.269531 2.785156 13.128906 1.765625 C 13.496094 1.3125 13.414062 0.660156 12.964844 0.292969 C 12.675781 0.0859375 12.351562 0.00390625 12.023438 0.0859375 C 8.546875 1.027344 5.519531 3.113281 3.351562 5.894531 C 1.269531 8.632812 0 12.027344 0 15.75 C 0 20.207031 1.800781 24.257812 4.742188 27.199219 C 7.6875 30.144531 11.738281 31.945312 16.195312 31.945312 C 19.957031 31.945312 23.433594 30.636719 26.214844 28.46875 C 29.035156 26.261719 31.078125 23.109375 31.9375 19.511719 C 32.144531 18.898438 31.816406 18.328125 31.242188 18.203125 Z M 24.988281 26.75 C 22.613281 28.632812 19.589844 29.777344 16.277344 29.777344 C 12.390625 29.777344 8.875 28.183594 6.339844 25.644531 C 3.804688 23.109375 2.207031 19.59375 2.207031 15.707031 C 2.207031 12.476562 3.273438 9.535156 5.113281 7.160156 C 6.378906 5.527344 7.972656 4.175781 9.816406 3.234375 C 9.609375 3.6875 9.40625 4.136719 9.242188 4.625 C 8.710938 6.097656 8.464844 7.652344 8.464844 9.289062 C 8.464844 13.171875 10.058594 16.730469 12.59375 19.265625 C 15.132812 21.800781 18.6875 23.398438 22.574219 23.398438 C 24.292969 23.398438 25.925781 23.109375 27.441406 22.539062 C 27.972656 22.332031 28.503906 22.128906 28.996094 21.882812 C 28.011719 23.765625 26.664062 25.441406 24.988281 26.75 Z M 24.988281 26.75 "/>
</g>
</svg>
