<?xml version="1.0" encoding="UTF-8"?>
<svg xmlns="http://www.w3.org/2000/svg" xmlns:xlink="http://www.w3.org/1999/xlink" width="50px" height="50px" viewBox="0 0 50 50" version="1.1">
<g id="surface1">
<path style=" stroke:none;fill-rule:nonzero;fill:rgb(100%,100%,100%);fill-opacity:1;" d="M 25.652344 3.355469 C 25.207031 3.007812 24.5625 3.082031 24.203125 3.523438 C 23.847656 3.964844 23.910156 4.613281 24.347656 4.976562 L 26.742188 6.914062 L 25 6.914062 C 14.058594 6.914062 5.207031 15.867188 5.207031 26.894531 C 5.207031 37.917969 14.058594 46.875 25 46.875 C 35.941406 46.875 44.792969 37.917969 44.792969 26.894531 C 44.804688 20.195312 41.464844 13.929688 35.890625 10.207031 C 35.410156 9.910156 34.78125 10.046875 34.472656 10.515625 C 34.160156 10.984375 34.277344 11.617188 34.734375 11.941406 C 39.730469 15.277344 42.722656 20.890625 42.707031 26.894531 C 42.707031 36.789062 34.769531 44.792969 25 44.792969 C 15.230469 44.792969 7.292969 36.789062 7.292969 26.894531 C 7.292969 17 15.230469 8.996094 25 8.996094 L 26.742188 8.996094 L 24.347656 10.933594 C 23.925781 11.300781 23.875 11.933594 24.226562 12.367188 C 24.574219 12.804688 25.207031 12.882812 25.652344 12.550781 L 30.339844 8.765625 C 30.585938 8.566406 30.730469 8.269531 30.730469 7.953125 C 30.730469 7.640625 30.585938 7.339844 30.339844 7.144531 Z M 25.652344 3.355469 "/>
<path style=" stroke:none;fill-rule:evenodd;fill:rgb(100%,100%,100%);fill-opacity:1;" d="M 21.484375 17.9375 C 21.171875 17.6875 20.742188 17.640625 20.382812 17.8125 C 20.023438 17.984375 19.792969 18.351562 19.792969 18.75 L 19.792969 35.417969 C 19.792969 35.816406 20.023438 36.179688 20.382812 36.355469 C 20.742188 36.527344 21.171875 36.480469 21.484375 36.230469 L 31.898438 27.894531 C 32.144531 27.699219 32.289062 27.398438 32.289062 27.082031 C 32.289062 26.765625 32.144531 26.46875 31.898438 26.269531 Z M 29.582031 27.082031 L 21.875 33.25 L 21.875 20.917969 Z M 29.582031 27.082031 "/>
</g>
</svg>
