<?xml version="1.0" encoding="UTF-8"?>
<svg xmlns="http://www.w3.org/2000/svg" xmlns:xlink="http://www.w3.org/1999/xlink" width="32px" height="px" viewBox="0 0 32 32" version="1.1">
<g id="surface1">
<path style=" stroke:none;fill-rule:nonzero;fill:rgb(100%,100%,100%);fill-opacity:1;" d="M 7.164062 30.726562 C 6.8125 30.726562 6.464844 30.617188 6.167969 30.402344 C 5.613281 30.003906 5.355469 29.3125 5.503906 28.648438 L 7.5625 19.578125 L 0.582031 13.457031 C 0.0703125 13.007812 -0.128906 12.296875 0.0820312 11.648438 C 0.292969 11.003906 0.867188 10.542969 1.546875 10.480469 L 10.785156 9.640625 L 14.4375 1.09375 C 14.707031 0.46875 15.320312 0.0625 16 0.0625 C 16.679688 0.0625 17.292969 0.46875 17.5625 1.09375 L 21.214844 9.640625 L 30.453125 10.480469 C 31.132812 10.542969 31.707031 11.003906 31.917969 11.648438 C 32.128906 12.296875 31.933594 13.007812 31.417969 13.457031 L 24.4375 19.578125 L 26.496094 28.644531 C 26.648438 29.3125 26.386719 30.003906 25.835938 30.402344 C 25.28125 30.800781 24.546875 30.832031 23.964844 30.484375 L 16 25.722656 L 8.035156 30.488281 C 7.765625 30.644531 7.464844 30.726562 7.164062 30.726562 Z M 16 23.671875 C 16.300781 23.671875 16.601562 23.753906 16.871094 23.914062 L 24.390625 28.410156 L 22.445312 19.851562 C 22.308594 19.242188 22.515625 18.605469 22.984375 18.195312 L 29.578125 12.414062 L 20.855469 11.621094 C 20.230469 11.566406 19.6875 11.167969 19.441406 10.589844 L 16 2.523438 L 12.554688 10.589844 C 12.308594 11.164062 11.769531 11.5625 11.144531 11.617188 L 2.421875 12.410156 L 9.011719 18.191406 C 9.484375 18.605469 9.691406 19.238281 9.550781 19.851562 L 7.609375 28.410156 L 15.128906 23.914062 C 15.398438 23.753906 15.695312 23.671875 16 23.671875 Z M 10.714844 9.808594 C 10.714844 9.808594 10.714844 9.808594 10.710938 9.808594 Z M 21.285156 9.804688 Z M 21.285156 9.804688 "/>
</g>
</svg>
